PathFileType	4	(X/Y/Z)	..\data\2014030\dynamic\2014030_C4_03.trc
DataRate	CameraRate	NumFrames	NumMarkers	Units	OrigDataRate	OrigDataStartFrame	OrigNumFrames
100.000000	100.000000	4	52	mm	100.000000	65	174
Frame#	Time	L_IAS			L_IPS			R_IPS			R_IAS			L_FTC			L_FLE			L_FME			L_FAX			L_TTC			L_FAL			L_TAM			L_FCC			L_FM1			L_FM2			L_FM5			R_FTC			R_FLE			R_FME			R_FAX			R_TTC			R_FAL			R_TAM			R_FCC			R_FM1			R_FM2			R_FM5			CV7			TV10			SXS			SJN			L_SIA			L_SRS			L_SAA			L_SAE			L_HLE			L_HME			L_UOA			L_RSP			L_UHE			L_HM2			L_HM5			R_SIA			R_SRS			R_SAA			R_SAE			R_HLE			R_HME			R_UOA			R_RSP			R_UHE			R_HM2			R_HM5			
		X1	Y1	Z1	X2	Y2	Z2	X3	Y3	Z3	X4	Y4	Z4	X5	Y5	Z5	X6	Y6	Z6	X7	Y7	Z7	X8	Y8	Z8	X9	Y9	Z9	X10	Y10	Z10	X11	Y11	Z11	X12	Y12	Z12	X13	Y13	Z13	X14	Y14	Z14	X15	Y15	Z15	X16	Y16	Z16	X17	Y17	Z17	X18	Y18	Z18	X19	Y19	Z19	X20	Y20	Z20	X21	Y21	Z21	X22	Y22	Z22	X23	Y23	Z23	X24	Y24	Z24	X25	Y25	Z25	X26	Y26	Z26	X27	Y27	Z27	X28	Y28	Z28	X29	Y29	Z29	X30	Y30	Z30	X31	Y31	Z31	X32	Y32	Z32	X33	Y33	Z33	X34	Y34	Z34	X35	Y35	Z35	X36	Y36	Z36	X37	Y37	Z37	X38	Y38	Z38	X39	Y39	Z39	X40	Y40	Z40	X41	Y41	Z41	X42	Y42	Z42	X43	Y43	Z43	X44	Y44	Z44	X45	Y45	Z45	X46	Y46	Z46	X47	Y47	Z47	X48	Y48	Z48	X49	Y49	Z49	X50	Y50	Z50	X51	Y51	Z51	X52	Y52	Z52	

66	0.65	632.0759887695314	918.7617797851565	-375.2668151855469	430.389373779297	964.5944824218752	-297.7636413574219	435.6030578613282	967.699401855469	-182.4903259277344	636.7307739257814	922.858337402344	-118.4593048095703	558.4260253906251	851.650329589844	-422.4877014160157	665.0646362304689	466.3119506835939	-363.0237731933594	670.1703491210939	464.6270141601564	-243.1255798339844	670.2299194335939	403.7142028808595	-362.5257873535157	724.0001220703126	420.4351806640626	-302.2859191894532	718.5474243164064	67.80484771728517	-341.9346923828126	723.8591308593751	85.63064575195314	-252.1861724853516	677.6434936523439	16.05963134765625	-302.6909484863282	856.167419433594	48.8463592529297	-245.2427825927735	864.012878417969	56.16382980346681	-300.8207702636719	840.2686157226565	27.58979034423829	-345.9247436523438	546.6751708984376	844.5156250000002	-63.17200469970705	483.3571777343751	455.1701049804689	-130.2530212402344	485.5704650878907	456.6771545410157	-253.1478729248047	448.1657104492189	402.9377441406251	-128.6467590332032	497.975799560547	374.8537902832032	-184.2378387451172	255.9933624267579	120.7257080078125	-150.4652557373047	277.3370056152344	121.6896133422852	-240.8497924804688	190.9679107666016	95.23030853271486	-198.6265563964844	352.5757446289063	16.01793479919434	-235.8716278076172	365.1939697265626	32.28168869018555	-175.7363433837891	315.1674804687501	17.63261032104493	-126.2667999267578	503.8898925781251	1422.1904296875	-233.7104949951172	434.9472656250001	1190.4638671875	-251.8629760742188	676.4155883789064	1117.459350585938	-269.0443420410157	629.7664794921876	1336.800903320313	-261.5172729492188	418.9024047851564	1220.972778320313	-338.5582275390626	449.5117797851564	1354.103637695313	-348.8255004882813	493.1554260253907	1359.040771484375	-420.3972778320314	544.6225585937501	1368.584350585938	-444.4442749023439	467.207489013672	1058.360473632813	-499.4209289550782	425.9735107421876	1066.267211914063	-437.5059814453126	430.1650695800782	1039.3720703125	-475.158905029297	530.4640502929689	822.9722900390627	-439.9335937500001	488.7102355957032	827.105895996094	-500.1066284179689	544.2838134765626	735.0504150390626	-436.5892333984376	472.182586669922	758.6452636718751	-506.945281982422	434.8236389160157	1213.812377929688	-157.9054260253907	475.3588256835939	1336.2626953125	-133.6923217773438	523.6509399414064	1336.658325195313	-83.14870452880861	578.7938842773439	1341.270141601563	-67.63123321533205	590.9305419921876	1021.1650390625	7.475732803344728	544.3087768554689	1001.448059082031	-61.48886108398439	556.5944824218751	983.023132324219	-17.96825408935547	723.5491333007814	825.8499145507815	-60.96019744873048	684.1948242187501	805.3973388671877	5.234850883483888	784.3159790039065	761.8883666992189	-61.18416976928712	719.7873535156251	741.5036010742189	9.772884368896486	
67	0.66	643.8976440429689	919.7962646484377	-376.0948791503907	441.8529663085939	965.3936767578127	-299.5180053710938	446.501190185547	967.7850341796877	-184.1327209472657	647.5305175781251	922.925231933594	-119.8015747070313	570.6037597656251	852.8610839843752	-423.8636474609376	674.5596313476564	466.4131469726564	-363.3831787109376	678.3256225585939	465.2939453125001	-243.6851348876954	678.8040771484376	403.6154785156251	-362.8127746582032	731.6500854492189	419.5058593750001	-301.7515563964844	720.1652221679689	66.76888275146486	-341.4248352050782	724.8025512695314	84.3519973754883	-251.4826049804688	677.4270629882814	16.11437034606934	-302.7406921386719	856.5889282226565	44.16836547851563	-243.6710052490235	865.060241699219	51.9191131591797	-299.1419372558594	841.0339965820315	24.59982681274415	-345.1165466308594	557.7937011718751	843.9958496093752	-65.07575988769533	498.8956604003907	454.5244140625001	-129.650390625	503.3307189941407	454.424041748047	-252.3799133300782	462.946014404297	403.4703369140626	-127.4871444702149	513.2539062500001	373.5097045898438	-181.6895599365235	263.1178894042969	126.8482971191407	-148.2423400878907	285.5000915527344	126.6893844604492	-238.1790161132813	197.9513549804688	105.0531539916992	-197.0459289550782	352.4976806640626	17.65389251708985	-235.6784210205079	365.3138732910157	32.22870254516602	-175.8825073242188	315.8140258789063	18.98423576354981	-126.6120376586914	514.3013916015626	1422.3037109375	-235.6034851074219	446.0867004394532	1190.401123046875	-253.7039031982422	687.9299316406251	1118.18017578125	-270.0117187500001	640.5698852539064	1337.274658203125	-262.8377990722657	430.5795288085939	1220.6748046875	-340.5526428222657	460.6468811035157	1353.941040039063	-350.8030700683594	504.3215637207032	1359.037963867188	-422.2840576171876	556.1217041015626	1368.624755859375	-446.0415954589845	479.7437438964845	1058.053833007813	-501.045623779297	438.174774169922	1065.890014648438	-439.3208618164064	442.6735839843751	1038.999877929688	-476.932098388672	543.4920654296876	823.0772094726565	-440.7213134765626	501.9942016601564	826.8965454101565	-501.108856201172	557.5617675781251	735.1603393554689	-437.0605468750001	485.7066650390626	758.3739624023439	-507.8420410156251	445.3710327148439	1213.96044921875	-159.8040008544922	485.6671142578126	1336.44775390625	-135.5848083496094	533.8158569335939	1336.985107421875	-84.87608337402345	588.8773193359376	1341.631713867188	-69.1444549560547	598.8115234375001	1021.594909667969	5.710556030273438	552.7972412109376	1002.122375488281	-63.43599319458009	564.6892700195314	983.5794067382815	-19.89274024963379	730.5944824218751	824.9364013671877	-61.84708404541017	690.6235351562501	804.8765869140627	4.05426836013794	790.8518066406252	760.4910278320314	-61.72632598876955	725.7990722656251	740.6771850585939	8.881099700927736	
68	0.67	655.6480712890626	921.0857543945315	-376.8972778320313	453.2440795898439	966.2493896484377	-301.3695373535157	457.2714233398439	967.8889160156252	-185.8846130371094	658.2241821289064	923.074645996094	-121.2016830444336	582.8249511718751	854.2147216796877	-425.3222656250001	683.7650146484376	466.5650024414064	-363.7555847167969	685.9318847656251	466.043670654297	-244.2035675048829	687.1305541992189	403.5953674316407	-363.1123657226563	738.9924316406251	418.7086486816407	-301.1816101074219	721.8443603515626	66.02149963378908	-340.9206237792969	725.7978515625001	83.37609863281251	-250.8056182861329	677.3920898437501	16.36088180541993	-302.8260498046876	857.0789184570315	40.01307678222657	-242.1476745605469	866.2359619140627	48.26727676391603	-297.5356750488282	841.9393310546877	22.18857002258301	-344.5469360351563	568.8684082031251	843.4664306640627	-67.07319641113283	515.6329345703126	453.781463623047	-128.8303833007813	522.5457153320314	452.1150207519532	-251.3912506103516	479.0381774902345	404.014129638672	-126.1106033325196	529.7128906250001	372.2826843261719	-178.9859161376953	271.6206359863282	133.4112548828125	-145.967041015625	294.9949035644532	132.0639953613282	-235.4217529296876	206.4242095947266	115.5641784667969	-195.3736572265626	353.0675964355469	19.77922439575196	-235.2776031494141	366.0209350585938	32.4448585510254	-175.9256896972657	317.1214904785157	21.04334831237793	-126.8177566528321	524.7247314453126	1422.5	-237.4936065673829	457.183319091797	1190.44775390625	-255.5672760009766	699.2884521484376	1118.947265625	-270.8026733398438	651.4029541015626	1337.79296875	-264.0809936523438	442.3355102539064	1220.4736328125	-342.6192932128907	471.8784179687501	1353.873168945313	-352.8114013671876	515.5789184570314	1359.1416015625	-424.190155029297	567.8314819335939	1368.729614257813	-447.5823364257814	492.6163940429689	1057.821411132813	-502.7412719726564	450.6401367187501	1065.565795898438	-441.2654418945314	455.4917602539064	1038.686767578125	-478.8288574218751	556.7750244140626	823.2442016601565	-441.5312805175782	515.6373901367189	826.7636718750002	-502.1968688964845	571.0523071289064	735.3192749023439	-437.5216674804689	499.5771484375001	758.1773071289064	-508.8478393554689	455.8638305664064	1214.22314453125	-161.7201385498047	495.936492919922	1336.740234375	-137.4722900390625	543.9124145507814	1337.421264648438	-86.5751419067383	598.9010009765626	1342.098022460938	-70.60128784179689	606.4060668945314	1022.145141601563	3.960757493972779	561.1350708007814	1002.9228515625	-65.40357208251955	572.5357055664064	984.2661743164065	-21.82526016235352	737.2949218750001	824.047302246094	-62.67910003662111	696.6683959960939	804.4104003906252	2.881968021392823	796.990661621094	759.0796508789064	-62.21687698364259	731.3701782226564	739.8857421875001	8.010784149169924	
69	0.68	667.2852783203126	922.5548095703127	-377.6856079101563	464.5331115722657	967.1255493164065	-303.3055725097657	467.8964843750001	968.0049438476565	-187.7387847900391	668.7901611328126	923.2825317382815	-122.6336898803711	595.0158691406251	855.6478271484377	-426.8404235839845	692.6519165039064	466.7325439453126	-364.1333007812501	693.0201416015626	466.8134765625001	-244.6690979003907	695.1686401367189	403.6188964843751	-363.4166259765626	746.0383911132814	418.0216369628907	-300.6130065917969	723.5718994140626	65.54353332519533	-340.4190979003907	726.8682861328126	82.68961334228517	-250.1600189208985	677.5718383789064	16.75716972351075	-302.9257507324219	857.6741333007815	36.42197418212891	-240.7130279541016	867.5630493164065	45.24237442016602	-296.0520935058594	842.9807128906252	20.35455513000489	-344.2359924316407	579.8610839843751	842.9481201171877	-69.11946105957033	533.5103149414064	452.9805603027345	-127.8033523559571	543.1806640625001	449.8463439941407	-250.2044372558594	496.4075317382814	404.5740356445314	-124.5416488647461	547.2779541015626	371.2326965332032	-176.2109375	281.5537719726563	140.3603820800782	-143.7132568359375	305.8577575683594	137.7669067382813	-232.6578674316407	216.4430084228516	126.5770721435547	-193.6788635253907	354.6006469726563	22.40885925292969	-234.567611694336	367.6137084960938	33.03451538085938	-175.7519989013672	319.3561401367188	23.9194393157959	-126.7847671508789	535.1445312500001	1422.763916015625	-239.3538513183594	468.2084960937501	1190.593994140625	-257.4367370605469	710.4586181640626	1119.710083007813	-271.4104003906251	662.2448730468751	1338.329467773438	-265.2314758300782	454.123260498047	1220.368530273438	-344.7371826171876	483.1786499023439	1353.895385742188	-354.8276367187501	526.9054565429689	1359.341796875	-426.0932922363282	579.7216186523439	1368.887329101563	-449.0471191406251	505.8168029785157	1057.65283203125	-504.4949035644532	463.3630676269532	1065.274047851563	-443.3294982910157	468.6111145019532	1038.4169921875	-480.837127685547	570.3134155273439	823.4584960937502	-442.362762451172	529.6480102539064	826.6971435546877	-503.3714904785157	584.7603759765626	735.5157470703126	-437.9804687500001	513.8057250976564	758.0447998046876	-509.9703979492189	466.2862243652345	1214.58203125	-163.6368865966797	506.1512145996095	1337.122436523438	-139.3327941894532	553.9244995117189	1337.943481445313	-88.22524261474611	608.8497314453126	1342.64599609375	-71.98186492919923	613.7372436523439	1022.788146972656	2.238723039627076	569.3360595703126	1003.818664550781	-67.37753295898439	580.1440429687501	985.0595703125002	-23.75139617919922	743.6604614257814	823.172302246094	-63.45561981201173	702.3571777343751	803.987243652344	1.727007031440735	802.7432861328127	757.6484985351564	-62.66969299316408	736.5228271484376	739.1217041015626	7.160089015960695	
